#!OML:ASF F:\VICON\USERDATA\INSTALL\rory3\rory3.ASF
:FULLY-SPECIFIED
:DEGREES
83
root 0.685061 17.1778 9.50469 2.69365 0.290321 -5.399
lowerback 15.4531 1.30923 5.95892
upperback -1.47454 3.05869 1.84689
thorax -10.1135 1.1848 -2.08872
lowerneck -21.0227 -5.92267 -1.43659
upperneck 10.3757 -8.15012 3.82269
head 6.78245 -3.62806 0.512417
rclavicle 6.87546e-014 3.91606e-014
rhumerus -30.3844 8.88157 -95.8676
rradius 121.749
rwrist -28.722
rhand -2.46928 40.6511
rfingers 7.12502
rthumb 23.2232 12.0313
lclavicle 6.87546e-014 3.91606e-014
lhumerus -62.0996 -14.5266 99.5256
lradius 110.963
lwrist 26.9189
lhand -29.9369 -2.93258
lfingers 7.12502
lthumb -3.25648 27.0223
rfemur -0.664058 8.13271 35.9073
rtibia 43.0184
rfoot -22.5267 -15.9887
rtoes -16.6663
lfemur -40.4639 10.422 -12.4611
ltibia 98.1705
lfoot -0.705798 -13.0045
ltoes -3.93629
84
root 0.720017 17.2747 10.0264 2.77259 0.389658 -5.35919
lowerback 15.3599 1.52189 6.25487
upperback -1.72407 3.3908 1.70723
thorax -10.2882 1.31115 -2.48302
lowerneck -20.8444 -6.18367 -1.51909
upperneck 10.4844 -8.48959 3.84642
head 6.80234 -3.79281 0.49414
rclavicle 9.88954e-015 -9.93923e-015
rhumerus -29.7602 8.33423 -95.4698
rradius 122.495
rwrist -30.2256
rhand -0.642024 41.8793
rfingers 7.12502
rthumb 24.9753 13.4917
lclavicle 9.88954e-015 -9.93923e-015
lhumerus -63.557 -13.9386 99.4276
lradius 111.262
lwrist 26.577
lhand -29.6594 -3.06236
lfingers 7.12502
lthumb -2.98857 26.8964
rfemur 1.50439 7.99453 35.7484
rtibia 41.5425
rfoot -19.7321 -14.3308
rtoes -17.4926
lfemur -41.6269 10.2183 -13.2642
ltibia 95.1702
lfoot -2.1486 -11.6871
ltoes -7.11142
85
root 0.776724 17.3916 10.5871 3.08251 0.769256 -4.9282
lowerback 14.4752 1.63743 6.49061
upperback -1.92769 3.49637 1.41041
thorax -9.96055 1.34905 -2.92484
lowerneck -20.4618 -6.35282 -1.62483
upperneck 10.443 -8.711 3.9721
head 6.74393 -3.89922 0.534712
rclavicle -2.86498e-014 1.19271e-014
rhumerus -29.6787 8.37782 -95.4931
rradius 123.514
rwrist -31.6124
rhand -0.809031 40.4676
rfingers 7.12502
rthumb 24.8152 12.0578
lclavicle -2.86498e-014 1.19271e-014
lhumerus -64.9107 -13.1517 99.1458
lradius 111.519
lwrist 26.3409
lhand -29.3508 -2.17347
lfingers 7.12502
lthumb -2.6905 27.7893
rfemur 3.47485 7.27352 34.8152
rtibia 39.9496
rfoot -16.7229 -12.229
rtoes -17.8207
lfemur -42.3704 9.38729 -14.6566
ltibia 91.6197
lfoot -2.67532 -9.884
ltoes -9.75654
86
root 0.800782 17.4942 11.1275 2.49718 1.68225 -4.73468
lowerback 14.7443 1.51486 6.58058
upperback -1.93638 3.36661 1.34643
thorax -10.1301 1.27243 -3.0289
lowerneck -20.1702 -6.50204 -1.65749
upperneck 10.3216 -8.89242 3.92286
head 6.66091 -3.9998 0.512457
rclavicle 1.21756e-015 9.93923e-016
rhumerus -29.6008 8.75642 -95.4934
rradius 124.463
rwrist -31.4341
rhand -2.11603 38.7324
rfingers 7.12502
rthumb 23.5621 10.1558
lclavicle 1.21756e-015 9.93923e-016
lhumerus -66.0186 -12.2326 98.8138
lradius 111.542
lwrist 26.0067
lhand -29.824 -1.58924
lfingers 7.12502
lthumb -3.14749 28.3673
rfemur 6.14114 6.28237 34.518
rtibia 38.3698
rfoot -13.1859 -10.0765
rtoes -15.7789
lfemur -42.2322 8.26183 -15.3582
ltibia 87.9095
lfoot -3.34809 -8.39813
ltoes -12.0866
87
root 0.842928 17.6083 11.6992 2.61469 2.01701 -4.53604
lowerback 13.9649 1.62254 6.69819
upperback -1.99342 3.46088 1.27575
thorax -9.72114 1.32568 -3.15654
lowerneck -20.2424 -6.61001 -1.75005
upperneck 10.3737 -9.00209 3.84694
head 6.69222 -4.06068 0.486334
rclavicle -1.08835e-014 1.47101e-014
rhumerus -28.9917 9.56995 -95.2008
rradius 125.185
rwrist -29.8863
rhand -4.34445 35.771
rfingers 7.12502
rthumb 21.4232 6.93547
lclavicle -1.08835e-014 1.47101e-014
lhumerus -66.8544 -11.1435 98.5588
lradius 111.363
lwrist 25.5274
lhand -29.5199 -1.4427
lfingers 7.12502
lthumb -2.85379 28.518
rfemur 8.13111 5.70705 33.8946
rtibia 36.6587
rfoot -8.74743 -7.56046
rtoes -13.6758
lfemur -42.3455 7.68715 -16.1715
ltibia 83.892
lfoot -4.27783 -6.82215
ltoes -12.5096
88
root 0.891887 17.7026 12.2633 2.76351 2.46334 -4.22315
lowerback 12.9823 1.7025 6.83982
upperback -1.99265 3.48997 1.1018
thorax -9.12872 1.35317 -3.3814
lowerneck -20.2156 -6.6416 -1.76168
upperneck 10.38 -9.03622 3.81061
head 6.68937 -4.08106 0.473122
rclavicle 4.09993e-015 1.03368e-014
rhumerus -28.6814 11.4211 -95.6126
rradius 126.518
rwrist -31.0541
rhand -8.54 28.5583
rfingers 7.12502
rthumb 17.3892 -0.683854
lclavicle 4.09993e-015 1.03368e-014
lhumerus -67.6421 -10.1822 98.1818
lradius 111.242
lwrist 25.7329
lhand -29.4268 -1.24989
lfingers 7.12502
lthumb -2.76392 28.7119
rfemur 10.0294 4.95549 33.0622
rtibia 34.8728
rfoot -3.39661 -5.27197
rtoes -10.9715
lfemur -42.3419 6.9439 -17.0617
ltibia 79.7236
lfoot -4.64312 -5.3509
ltoes -12.4878
